<svg xmlns="http://www.w3.org/2000/svg" viewBox="0 0 1970.5 1203.43"><defs><style>.cls-1{fill:#fff;}</style></defs><g id="Layer_2" data-name="Layer 2"><g id="Layer_1-2" data-name="Layer 1"><path class="cls-1" d="M1148.46,311.07l-1.26,4.06c4.88,2.05,12.14,3.25,12.57,5.65,1,6-1,12.6-2.18,22.14,14.63,3.92,31.69,8.86,48.93,13.05,36.12,8.79,72.55,16.42,108.41,26.15,13.26,3.6,25.66,11.11,37.73,18.09,9.87,5.71,13.35,14.33,7,25.63-4.89,8.71-8.56,18.11-13.38,28.5,4.86,2.93,9.13,5.73,13.59,8.17,27.35,14.94,50.7,34.18,68,60.6s39.15,48.25,71,59C1458,669.75,1418,755.73,1377.45,842.67c-22.55-8.77-41.53-20.6-56.31-38.61-5.56-6.77-11.28-13.51-16-20.86-16.73-26.19-39.5-45.49-66.56-60.18-5.77-3.13-11.51-6.38-17-10-13.63-9-14.66-13.25-7.57-28.24,4.09-8.65,8.13-17.34,12.54-26.74-59.78-37.56-131.48-31.07-195.47-57.51-9.17,19.49-18.73,39-27.3,58.85-1.29,3,1.54,8.23,3.31,12q54.55,117.41,109.4,234.68c3.17,6.78,6.41,12.23-3.31,16.89-10.6,5.08-11.85-3-14.68-9q-47.8-102.42-95.52-204.91c-3.27-7-6.66-14-11.4-23.93-4.91,10.31-8.64,18-12.24,25.7Q931.87,812.7,884.5,914.6c-3.51,7.58-6.3,13.22-16.24,7.47-8.43-4.87-4.4-9.75-1.84-15.22,36.11-77.43,72.07-154.93,108.48-232.22,4.26-9,5.33-16.46.38-25.69-8.26-15.39-15.12-31.53-22.72-47.68-58.07,15-115.54,29.68-172.87,44.88-7.8,2.07-14.9,6.82-23.52,10.89,5.14,11,9.18,21.13,14.43,30.57,5.74,10.33,2.44,17.43-6.21,23.53a15.41,15.41,0,0,1-2.17,1.48c-42.51,20.13-73.69,52.39-100,90.71-13.19,19.23-33.47,30.31-56.53,39.32q-60.48-129.72-120.27-258c1-1.5,1.38-2.59,2-2.86,32.39-13,54.33-37.55,73.09-65.74,16.25-24.43,39.3-41,64.77-54.38,9.2-4.82,12.81-9.56,6.28-19-2.46-3.55-3.88-7.84-5.69-11.83-8.62-19-7.71-27.1,12-35.13,30.65-12.48,62.49-22.37,94.39-31.35,27.33-7.69,55.47-12.47,83.2-18.81,4.12-.94,7.92-3.3,9.17-3.84-.52-8.5-1.82-15.33-.78-21.79.3-1.85,7.35-2.61,12.1-4.13l-2-6.12c9.35,4.9,13.16,11.11,15.41,21.28,3,13.39,10.67,25.77,16.59,38.47q60.26,129.27,120.64,258.46c1.08,2.33,2.32,4.58,4.34,8.52,2.37-3.89,4.29-6.47,5.62-9.32Q1064,483,1131.22,338.84C1135.9,328.83,1132.31,313.83,1148.46,311.07Zm-72.85,163.78c1.3-1.62,3-3.06,3.85-4.89q30.3-64.62,60.39-129.34c.75-1.62.78-3.57,1.14-5.37-16.89,31.31-31.94,63.23-46.61,95.31-6.66,14.57-12.58,29.48-18.83,44.24q-19.68,42.15-39.35,84.29c-1.87,2.79-4.16,5.38-5.56,8.38q-39.57,84.48-78.88,169.07c-8.24,17.8-15.8,35.92-23.68,53.89q-22.41,46.5-44.82,93c-4.65,9.69-9,19.5-13.5,29.26,4.35-2.45,6.43-6.06,8.18-9.82,11.48-24.56,23-49.09,34.25-73.78,5.74-12.65,10.83-25.6,16.22-38.41,1.52-2,3.46-3.84,4.5-6.08q50.67-108.43,101.11-217c1.22-2.63,1.37-5.76,2-8.66Zm-126.4,89.49,34.92,79.85,4.3-2.05q-19.54-39-39.07-77.92c-.73-2.91-1-6-2.25-8.71Q896.7,447.06,846.06,338.7c-.72-1.53-2.09-2.74-3.15-4.09.11,4.95,1.7,8.91,3.5,12.77C870.26,398.62,894,449.9,918.08,501,928.09,522.31,938.81,543.25,949.21,564.34ZM1277.3,444.79,1245.78,507l53.2,25.84c7.38-15.67,14.47-32.58,23.2-48.59,5.65-10.37,2.84-16.15-6.55-20.73-12.83-6.26-25.69-12.43-38.54-18.64,8.5-20.29,17-40.57,26.73-63.81-26.15-5.6-51.55-11.17-77-16.24-1.93-.39-5.67,2.26-6.71,4.4-8.93,18.34-17.43,36.89-26.5,56.3C1222.46,432.14,1249.92,438.45,1277.3,444.79ZM767.82,572.24l80-21.69c-9.21-20-18.26-39.6-27.38-59.39l71-19.76c-10.86-23.25-20.21-43.28-29.16-62.43l-71,19.16,27.94,60.42L737,508c11.42,23.69,21.29,44.15,31.14,64.6C753,578.93,737.64,584.91,722.83,592c-3.1,1.49-6.79,8.33-5.74,10.81,8.11,19.16,17.32,37.86,25.76,55.79l52.23-25.36C785.91,612.74,776.87,592.49,767.82,572.24Zm394.95-81.16c-9.34,20.3-18.4,40-27.76,60.31l81.58,19.37-28.69,62.38,52.46,25.56c7.37-15.66,14.17-32.24,22.84-47.79,6-10.83,3.44-17-6.65-21.81-13-6.14-26-12.11-39.8-18.53l29-62.93-81.82-19,28-60.51L1120.86,409l-29.18,62.57Zm132.45,177.38,48,52.94,29-60.59C1389,684.38,1408,701,1434.07,710.14l27.2-58.44L1399.55,602c-8.42,17.86-17.59,37.32-26.79,56.86l-48.13-53c-11.25,23.8-20.72,43.85-30.41,64.37l-42-24.64c-6.87,18.71-16.61,34-33.69,44.32-8.35,5-4.14,12.47,2.68,16.78,14,8.84,28.27,17.17,43.51,26.36ZM521.77,651.79c8.73,18.51,18.17,38.54,27.58,58.48,26.4-10,45.72-26.42,61.67-49.88,10.59,22.38,19.79,41.8,29.85,63.05,15.15-20.42,27.36-39.7,48.66-51.53l28.94,61c14.49-8.57,27.49-15.81,40-23.79,14.13-9,13.41-13.83.88-24.51-8.64-7.36-15.33-17.1-22.43-26.15-2.77-3.53-4.26-8.06-6.55-12.55L689,670.17c-10-20.92-19.52-40.9-30.66-64.26l-47.8,52.94c-9.46-19.82-18.75-39.3-27-56.69ZM789.6,425.41c-9-19.33-17.18-37.21-25.82-54.85-1.25-2.57-5.18-6.1-7.19-5.71-25.54,5-51,10.57-78.06,16.36,10.67,23.26,19.87,43.33,29,63.34-14.89,7.17-28.87,13.31-42.16,20.69-3.56,2-8,9-6.95,11.6,8,19.21,17.25,37.87,25.72,55.87l52.58-25.37c-9.33-20.13-18.61-40.18-29.08-62.78Zm564.47,117.11,48.06,53.07c8.83-18.92,17.71-37.8,26.37-56.78.79-1.72,1-4.7,0-6.09-13-18.5-25.48-37.51-46.61-49.61l-29.08,61.21-41.72-24.52-29.33,62.54,41.56,24.79Zm-724.95-.22c11.45,24.24,20.92,44.29,30.7,65l41.57-25.13c-10-21.27-19.46-41.33-29.36-62.33l-41.72,24.53-29.06-61.27C580.33,495.16,568,513.83,555.1,532a7.28,7.28,0,0,0-.62,6.12c8.68,19.22,17.62,38.33,26.52,57.52ZM608,836.34c24.66-10.15,43.62-24.24,57.61-44.64,1.54-2.26,3.25-6.08,2.37-8.08-8.51-19.38-17.56-38.54-25.54-55.78l-61.92,49.74C588.73,795.15,598.08,815.14,608,836.34Zm732.9-108.52c-7.86,16.78-16.72,35.21-25,53.89-1.11,2.51-.29,7,1.35,9.41,14.13,20.77,33.11,35.47,58.06,44.93,9.67-20.72,19.13-41,27.27-58.45ZM849.92,554c8.67,18.66,16.93,36.87,25.72,54.81,1.21,2.48,5.45,5.64,7.57,5.17,21.93-4.77,43.71-10.23,67.3-15.93L920.93,534.8Zm212.3-19.24c-9.19,19.72-18.5,39.72-29.47,63.27,23.41,5.7,44.76,11.09,66.25,15.85,2.34.52,6.94-1.94,8.06-4.21,9-18.25,17.43-36.79,26.23-55.68ZM1094.14,879l3.08-1.43L1002,673.08l-3.07,1.42Q1046.51,776.75,1094.14,879Z"/><path class="cls-1" d="M1620.58,299.49l-25.72,30.39L1564.2,308l21.31-30.74c-6.64-15.5-33.13-15.39-29.43-39l-28.52-23.11c-13.66,14.74-20.51-1.49-31-6.39,1.27-4.5,2.41-8.55,4.07-14.42-37.35-22.71-74.5-46.55-112.88-68.19-23.73-13.39-49.27-23.61-74.18-34.84-5.39-2.42-11.79-2.51-17.36-4.62-7.69-2.91-15.06-6.66-22.5-10.19-1.53-.73-2.6-2.64-4.15-3.1-20.73-6.14-41.57-11.92-62.25-18.22-8.79-2.68-17.07-7.31-26-9.33-11.21-2.53-22.79-3.52-34.26-4.71-7.28-.76-14.73-.08-22-1.08q-36.37-5-72.62-10.87c-9.34-1.51-18.51-5.87-27.75-5.83-20.34.1-40.66,2.32-61,3.32-3.75.19-7.55-1.52-11.38-2-5.53-.66-11.27-2.07-16.64-1.27-22.26,3.29-44.42,7.34-66.63,11-6.91,1.13-13.85,2.42-20.82,2.75-15.27.7-31.07-1.52-45.73,1.69-28.89,6.32-58.49,11.4-84.08,28.27a39.07,39.07,0,0,1-18.6,6.42c-32.67,1.57-60.13,17.89-87.25,32.73-41.77,22.85-81.76,49-122.07,74.46-12.85,8.11-24.34,18.4-37.21,28.28,13.67,15.79-3.87,17.93-11.2,26-8.74-8.4-16.58-7.13-23.35,2.46-5.09,7.2-17.67,10.21-12.45,23.28.76,1.9-1.22,6.5-3.19,7.61-10.73,6-15.73,19.89-32.2,19.27-6.61-.24-14.08,11.93-20.45,19.08-8.68,9.76-16.12,20.65-25.14,30-7.23,7.53-7.39,14-1.31,21.8,2.68,3.44,5.68,7.06,6.89,11.09,1,3.26.91,8.67-1.12,10.68-6.75,6.67-14.58,12.23-22.55,18.66L291.8,382.88c-19.89,15.36-25.61,29-19.45,46l-30.49,26.37,22.89,31.55-26.81,23.44-19.57-20.74c-7.18,13-13.47,24.36-19.74,35.73-.21.38-.54.93-.41,1.22,7.36,16.82-6.91,23-15.18,32.67-3,3.55-4,11.27-2.39,15.85,3,8.46,8.56,16,13.56,24.81L168,622.21l-12-10c-4.74,10.74-9.12,20.65-13.5,30.56l2.65,1.72,21.53-15.24c7.39,9.74,14.21,18.73,22.05,29.08l-27.21,22.54c-7.77-8.59-15-16.56-24.92-27.55-2.75,20.69-20.93,33.42-12.9,54.12.85,2.19-1.59,6.48-3.62,8.84-21.28,24.86-21.34,24.8-2,53.88-4.61,3.91-9.48,8-14.26,12.13S94.07,791,87.93,796.5l22.88,32.18c-17.9,20.63-25.34,24-38.1,15.85-1.91,7.3-3.72,14.19-6.34,24.18L83,859.54l22.35,28.37L74.57,913.76l-9.74-17.7-4.41,2.19Q57.06,915.13,53.68,932l3,1.35,19.39-13.83L97.52,948,71.08,970.5,52.33,949.92c-2,2.59-4.53,4.3-4.84,6.33C42.25,991.1,37.4,1026,32.2,1060.85c-2,13.33-5.1,26.51-6.7,39.87-.68,5.71,1.3,11.72,1.81,17.62.2,2.35.48,5.25-.63,7.09-9.9,16.34-11.52,33.16-4.73,51.12,4.91,13-7.56,27.93-21.95,25.55,3.67-35.6,6.22-71.43,11.27-106.91,8.46-59.38,17.08-118.82,28.37-177.71A1401.43,1401.43,0,0,1,73.28,779.66c11.14-37.23,26.71-73.18,41.23-109.34,17-42.23,32.65-85.19,52.88-125.86,46.42-93.31,101.93-180.89,174.12-256.92,8.43-8.87,16-16.82,3.13-28.28-1.48-1.31.9-9.7,3.76-12.42s11.22-4.93,12.69-3.3c10,11,16.4,4.08,24-2.78,44.52-40.26,88.62-81,141-111.36,70.77-41,143.93-76.28,223-98.6C826,9.09,904-.55,984,0c110.49.8,216.31,21.76,319.07,62.21,85.17,33.52,162,81,236.26,133.37,12.47,8.79,23.42,19.8,34.79,30.09,6.22,5.64,11.92,6.52,18.46.72,5.38-4.77,11.16-7,17.39-.95s6.12,11.78-.27,17.9c-7.35,7.06-.69,11.69,3.61,16.35,26.75,29,55.2,56.56,80,87.1,53.13,65.33,103.25,133.21,141.06,208.71,18.75,37.43,30.78,78.19,46.39,117.23,33.87,84.77,49,174.39,66.19,263.2,8.55,44.06,8.52,89.77,12.48,134.72,3.49,39.62,6.78,79.25,10.91,118.8,1.11,10.6-3.92,12.94-15,14-1.8-76.08-6.73-151.65-18.73-226.49l-4.39-2.17-23.83,29.7c-11.63-9.28-20.73-16.56-31.24-25,7.51-8.2,14.39-16.51,22.28-23.69,1.72-1.57,7.82-.22,10.63,1.68,8.09,5.46,15.54,11.88,23.24,17.93l3.18-1.57q-4.29-25.62-8.57-51.23l-5.15-3.14c-4.7,6.09-9.6,12-14,18.33-4.12,5.82-8.07,7.28-13.79,1.81-6.62-6.33-13.75-12.11-21.39-18.76l24.65-25.94,28,19c-3.86-16.55-6.8-29.22-10.47-45l-19.23,17.16L1869,863.44l24.61-28.62,13,9.9,3.27-1-5.55-23-11.67,7.35-28-23.82,25.68-30.43-29.83-27.28c2.84-4,5.51-7.74,8.22-11.48,8.89-12.27,8.8-22.66-1.58-34-6.66-7.27-13.08-13-7.53-24.75,2.08-4.42-2.78-12.33-5-18.48-3-8.47-6.49-16.78-10.57-27.22l-25.5,28.19-28.62-22.92,22.62-28.9,26.24,16.72,2.79-1.41L1826,589.56,1811.87,600,1783,577.32c5.4-7,10.27-13.61,15.39-20,6.13-7.66,4.94-14.29-2.23-20.48-5-4.28-9.87-8.65-14.59-13.19-1.81-1.74-4.74-4.63-4.27-6,6.83-20.67-13.61-29.19-18.68-46.64l-21.39,17.74-28.83-21c7.37-10.81,14.37-21.08,21.55-31.63-6.74-6.09-12.38-12.15-19-16.88-7.14-5.12-14.49-9.07-7.74-19.59.81-1.27-1-5-2.49-6.84-7-8.84-14.4-17.43-22.34-26.94L1662,380.61l-29.5-20.55c-.12-2-.31-2.47-.15-2.76,5.08-9,16-19.77,14-26.56C1642.94,319.76,1631,311.4,1620.58,299.49Zm-8.82-4.78-1.2.84-20.63-23.06c-.64.83-1.29,1.66-1.93,2.5Z"/><path class="cls-1" d="M1185.07,995.52h60.3c.22,5,.6,9.67.61,14.32q.06,67.62,0,135.24c0,9.25-1.45,18.89,11.69,21.14,2,.34,5,4.85,4.53,6.65-.71,2.72-3.85,5-6.39,6.94-1.19.89-3.39.57-5.13.57-23.64,0-47.28.32-70.9-.28-3.79-.09-7.47-4.17-11.21-6.41,2.55-3,4.58-7.8,7.75-8.73,9.43-2.79,8.68-9.94,8.69-16.82q.15-67.62.06-135.24Z"/><path class="cls-1" d="M1349.8,995.54h60.28c.24,5.41.63,10.1.63,14.79,0,45.55.13,91.11-.06,136.66,0,8.9.3,16.54,11.36,18.89,2.42.52,6.2,5.83,5.57,7.2-1.37,3-5.13,6.81-8,6.87q-38.74.79-77.51,0c-2.9,0-6.7-3.73-8.13-6.68-.66-1.37,3-6.8,5.31-7.31,10.66-2.33,10.58-9.94,10.57-18.16q-.12-68.33,0-136.66Z"/><path class="cls-1" d="M731.39,994.47v24.08c0,43.34.08,86.67-.07,130,0,8,.58,14.6,10.32,16.94,2.71.65,4.46,5.31,6.65,8.13-2.87,2.23-5.7,6.32-8.63,6.39q-34.12.78-68.26,0c-3-.07-5.86-4.09-8.78-6.28,2.21-2.83,3.93-7.36,6.74-8.19,8-2.35,9.62-7.44,9.59-14.78-.17-41.14-.08-82.29-.1-123.44,0-6.89-.73-12.9-9.45-14.79-2.79-.61-4.8-4.8-7.17-7.35,3.13-2.39,6.11-6.59,9.43-6.9C690.79,996.53,710,995.72,731.39,994.47Z"/><path class="cls-1" d="M1725.49,991.69c52.16,1,83.7,44.38,80.91,104-2.4,51-36.44,89.87-78.69,86.47,1.84-5.31,3.32-10.1,5.16-14.75,2.59-6.57,7.7-13,7.82-19.54.73-40.7.6-81.43.1-122.14-.06-5.52-3.46-11.13-5.86-16.46C1732.61,1004.07,1729.59,999.22,1725.49,991.69Z"/><path class="cls-1" d="M1543.56,1183.3c-45.46-1.4-77-42.91-76.12-96.14.86-54,34-95.62,79.66-95.24-3.26,6.85-6.1,12.22-8.4,17.82s-5.56,11.15-5.62,16.77q-.74,61.77,0,123.55c.07,5.51,4,10.93,5.77,16.49C1540.49,1171.55,1541.72,1176.69,1543.56,1183.3Z"/><path class="cls-1" d="M1720.36,992c-3.41,6.89-6.28,12.15-8.66,17.63-2.51,5.79-6.42,11.75-6.51,17.69-.57,39.43-.77,78.89.14,118.31.17,7.27,6.13,14.32,9,21.63,1.87,4.77,3,9.83,4.61,15.14-44,2.17-76.79-36.91-78.64-90.79C1638.37,1034.88,1670.76,992.43,1720.36,992Z"/><path class="cls-1" d="M239.18,993.86c32.35-4.25,60.46,10.84,67.33,33.82,6.95,23.24-3.88,42.8-29,55.1,9.36,8.45,23,15.7,28.21,26.88,5.17,11,5.06,26.88,1.59,39-6.67,23.35-36.55,36.95-65.13,32.73-2.16-7.51-2-13.33,6.3-18.37,3.79-2.3,6.15-9.38,6.48-14.47.88-13.53.11-27.16.37-40.74.18-10-4.16-15.22-14.14-17.14-3.78-.72-6.93-4.75-10.37-7.27,3.47-2.48,6.64-6.3,10.49-7.19,10.27-2.37,14.92-7.9,14.39-18.49-.51-10.06-.52-20.15-.36-30.22.12-8.37-1.41-15.07-9.61-19.94C242.43,1005.59,241.65,999.36,239.18,993.86Z"/><path class="cls-1" d="M464.16,993.88c31.66-3.83,58.48,10.69,66.55,33,9,24.94-.41,52.72-25.92,66.13-24.78,13-51.32,22.72-77.8,32.35,12.74-23.44,43.24-30.12,49.41-58.39C481.94,1041.65,477.51,1017.61,464.16,993.88Z"/><path class="cls-1" d="M1551.53,1180.7c2.72-5.06,5.7-10,8.07-15.24,2.09-4.58,4.55-9.39,5-14.26.77-9.54.22-19.2.23-28.81,0-9.45,2.31-19.91-11.82-22.17-1.68-.26-4-5-3.63-7.25s3.35-5.12,5.75-5.83c4.07-1.22,8.59-1.22,12.92-1.27,13.54-.13,27.11-.51,40.62.17,5.61.29,11.1,3,16.65,4.6-1.88,4.48-3.94,8.88-5.57,13.44a33.43,33.43,0,0,0-1.86,8.72c-.31,4.35.17,8.75-.13,13.1-.82,11.51,2.44,27.37-3.8,33.53-10.82,10.7-27.38,15.83-42,22.36-4.86,2.17-11,1.48-16.57,2.1Z"/><path class="cls-1" d="M460.37,1129.9c10.71,1.83,25.72,4.64,40.82,6.91,11,1.65,22.36,3.48,25.26-12.49.37-2,5.13-3.31,7.85-4.93,1.65,2.78,4.41,5.42,4.79,8.37,3.86,29.77-26.88,59.55-56.37,54.14-13.25-2.43-26-7.86-39.23-10-7-1.15-14.67,1.68-22,2.88-3.62.59-9.21,3.3-10.34,2a15.7,15.7,0,0,1-3.06-11.43C411.63,1142.91,430.52,1129.16,460.37,1129.9Z"/><path class="cls-1" d="M893.91,130.26c7.25-18,7.09-73.93-.84-86.47l37.28-4.46c0,18.51-.64,35.34.23,52.1.54,10.51-5.63,22.88,7,34.38Z"/><path class="cls-1" d="M1030.5,129.8c-29.28-1.45-38.44-10.76-38.52-37,0-10.5.35-21-.13-31.5-.31-6.59-1.87-13.13-3.27-22.28l36.57,1.75C1023.37,71.31,1018,100.29,1030.5,129.8Z"/><path class="cls-1" d="M791.63,63.2c-5,29.75-5.41,56.78.16,86.9l-35.72,12c1.29-14.1,2.47-27.08,3.77-41.24H748.13c12.3-12.67,14.36-28.74,5.35-45.22Z"/><path class="cls-1" d="M1111.76,142.9c.2-3-.23-4.74.45-5.42,11.93-11.87,11.51-14.1-2.5-24.2-8.8-6.34-18.55-12.36-25-20.72-12.94-16.75-4-39.62,15-41.22,2.75-.23,5.63,1.21,8.45,1.88-1.07,2.46-2.89,4.87-3,7.38-.29,4.82-1.41,11.12,1.06,14.21,4.2,5.27,11.29,8.13,16.48,12.77,6.12,5.47,12.57,11.06,17,17.85,6,9.32,6.92,20,0,29.66S1122.88,144.74,1111.76,142.9Z"/><path class="cls-1" d="M457.3,992.83c-3.14,8-5.41,13.85-8.72,22.34-.81-.37,1.57.13,3.12,1.54,10.85,10,13.23,21.89,6.77,32.61-6.38,10.56-20,15.49-32,11.55s-19.63-16.47-18.15-29.93C410.64,1010.28,428,995.78,457.3,992.83Z"/><path class="cls-1" d="M1195.87,166l-37.41-12.28c5.3-29.76,5.46-57.51-.23-87.5,10,3.44,20.27,6.39,29.9,10.68,2.19,1,3.17,6.55,3.24,10,.34,15.71-.34,31.45.33,47.14C1192.13,144.17,1194.27,154.22,1195.87,166Z"/><path class="cls-1" d="M1284.68,206.93l-34.61-17.85c3.55-30.2,3.87-57.38-.14-84.61,17.25-.41,30.49,11.94,30.31,29.76-.13,13.1-.57,26.23.14,39.3C1281,184.23,1283.07,194.86,1284.68,206.93Z"/><path class="cls-1" d="M746.15,77.94V165.2l-35.21,14.2c5.66-29.82,5.29-57.1.55-87.19Z"/><path class="cls-1" d="M214.21,1162.65c7.91,4.3,19.74,4.85,12.91,18.65-17.59-1.81-33.87-6.69-44.49-22.63-8-12-6.73-28.57,2.59-37.64,8.92-8.68,19.38-9.93,30.17-4.16,14.34,7.66,17.36,24.31,7.08,36.82C220.08,1156.59,217.37,1159.24,214.21,1162.65Z"/><path class="cls-1" d="M931.64,41.83c20.22-4.48,34.05.23,38.21,11.71,4,11.11-.27,19.3-15.69,28.7,15.14,3.31,18.82,13.39,16.12,27.64l11.64,1.86c-5,14.15-15.63,14.77-26.7,13.74-10.63-1-14.29-7.77-15-17.91-.6-8-3.2-15.81-5.46-26.27C944.7,70.61,943.65,56.68,931.64,41.83Z"/><path class="cls-1" d="M1195.94,120.8c12.11-11.53,5.57-25.4-2.62-39.22,16.31-1,33.06,12.26,36.08,27.87,2.27,11.78-.64,16.21-9.86,19.19,3.58,10.56,7,21.11,10.81,31.54.86,2.38,2.83,4.37,4.34,6.5s3.11,4.23,4.67,6.34c-2.38,1.63-4.57,4.19-7.17,4.73-13.66,2.84-29.36-10.79-30.9-25.59C1200.26,142.2,1198,132.38,1195.94,120.8Z"/><path class="cls-1" d="M840.28,50.92c-7.09,30.57-7.52,59.19.28,88-13.47,4.2-26.65-1-33.19-13.57-12.84-24.65,1.37-63.26,27.14-73.52C836.32,51.12,838.44,51.2,840.28,50.92Z"/><path class="cls-1" d="M846.5,138.07c7.22-23.22,7.35-67.59.27-87.95,18.08-3.81,32.81,6.54,36.71,25.78C889.46,105.49,873.69,132.79,846.5,138.07Z"/><path class="cls-1" d="M230.46,995.17c-3.38,6.2-6.75,12.41-10.4,19.12,3.08,4.44,9.09,9.8,10.86,16.31,3.7,13.6-6.32,26.76-19.84,28.61-14.64,2-26.83-7.82-27.67-22.87-.93-16.76,7.83-28.3,21.76-35.95,6.7-3.68,14.34-5.64,21.55-8.37Z"/><path class="cls-1" d="M1556.93,1004.92v-14c9.08,1.67,17.21,2.67,25.07,4.74,9.74,2.55,19.73,9.69,27.17-3.69,3.69,2.11,10.49,4.07,10.6,6.34.85,18.81.76,37.68.15,56.5-.1,2.9-4,7.54-6.71,8s-7.1-2.86-8.75-5.69c-3-5.22-4.25-11.46-6.83-17C1587,1017.39,1579.93,1011.36,1556.93,1004.92Z"/><path class="cls-1" d="M664.42,116.17c-2.59,27.54-6,54.12,1,80.75.57,2.14-1.58,7.09-2.93,7.27a83.56,83.56,0,0,1-21.3.58c-2.46-.3-5.17-4.67-6.41-7.73C623.85,170,642.51,124,664.42,116.17Z"/><path class="cls-1" d="M589.4,1102c-6.54,0-13.08,0-19.62,0-13.68,0-21.33-13.07-14.44-25.2,1.19-2.09,4.87-3.85,7.43-3.89,17.87-.35,35.75-.32,53.63-.17,12.68.11,7.89,10,8.55,16.41.69,6.69.91,13.5-9.39,12.94C606.87,1101.63,598.12,1102,589.4,1102Z"/><path class="cls-1" d="M395.1,1101.94c-21.85,0-42.25.2-62.64-.09-10-.14-7.15-8.32-7-13.72.15-5.73-3.68-14.79,7-15.15,18.33-.62,36.72-.53,55,.14,2.63.1,6.72,4.77,7.29,7.86C395.9,1087.21,395.1,1093.8,395.1,1101.94Z"/><path class="cls-1" d="M1302.45,995.37h38.89c-3.41,8.08-6.09,14.42-8.76,20.77-4,9.53-7.6,19.23-12.1,28.51-2.53,5.23-6.51,9.75-9.84,14.59-2.73-5.09-7.46-10-7.82-15.29C1301.78,1028.34,1302.45,1012.62,1302.45,995.37Z"/><path class="cls-1" d="M1525.39,280l-30.24-22.29,23.31-32,32.22,23.35C1541.75,260,1533.86,269.66,1525.39,280Z"/><path class="cls-1" d="M1422.59,995.3h34.6c0,19.15.24,38.21-.31,57.24-.06,2.28-4.54,6.39-6.68,6.21-3.12-.27-8-3.22-8.59-5.8-3.38-15.48-6.43-30.64-18.68-42.47C1420.57,1008.19,1422.59,1001.37,1422.59,995.3Z"/><path class="cls-1" d="M376.62,291.52c7.69,9.74,14.91,18.31,21.25,27.48,1.13,1.63-.43,6.88-2.38,8.57-7.18,6.2-15.05,11.61-23.05,17.61l-24.79-27.81Z"/><path class="cls-1" d="M1788.79,694.46c-7.79,10.36-14.56,19.38-22.37,29.78l-31.29-23.69c8.18-10,15.72-19.28,24.23-29.73Z"/><path class="cls-1" d="M287.93,576.94l-23.88-30.08,29.82-23.21c7.62,9.42,14.84,18.37,23.4,29Z"/><path class="cls-1" d="M464.33,269.43c-8.74,7.06-16.13,13.79-24.39,19.2-2.17,1.42-8.22,0-10.37-2.21-6.37-6.49-11.67-14-18.65-22.71l29.4-25Z"/><path class="cls-1" d="M1687.41,557l-30.48-24,23.64-29.79c10.12,7.81,19.33,14.93,29.57,22.85Z"/><path class="cls-1" d="M1759.74,666.62,1729.92,643l23.56-29.76,29.88,23.38C1775.64,646.4,1768.29,655.76,1759.74,666.62Z"/><path class="cls-1" d="M1256.66,995.53H1292c0,18.93.29,37.59-.34,56.22-.09,2.56-4.71,6.92-7.25,6.93-2.86,0-7.78-3.55-8.3-6.23-2.94-15.21-6.19-29.75-18.05-41.33C1255.4,1008.48,1257.06,1001.36,1256.66,995.53Z"/><path class="cls-1" d="M1752.72,607.12l-30.16-22.89,24.94-29.29,29.63,22.7Z"/><path class="cls-1" d="M1663.77,386.87l31,22.68-24.66,29-30.33-21.66Z"/><path class="cls-1" d="M1854.5,746.88c-1.63,2.65-2.23,3.8-3,4.83-22.16,29.74-22.67,29.75-49.42,1.09l23-28.23Z"/><path class="cls-1" d="M1176.9,995.61c-4.37,8.95-7.83,15.2-10.53,21.77-4.1,10-7.19,20.41-11.69,30.2-2,4.43-6.39,7.8-9.69,11.65-2.43-4.39-6.71-8.69-6.94-13.19-.84-16.5-.33-33.06-.33-50.43Z"/><path class="cls-1" d="M1848.17,689.38c-8,9.63-15.39,18.63-23.67,28.64l-27.66-23c.25-1.73.1-2.76.53-3.38C1817.22,663.13,1822.81,662.8,1848.17,689.38Z"/><path class="cls-1" d="M149,799.52,124.38,770.6,154,746.69l23.51,29.48Z"/><path class="cls-1" d="M1565.13,366.61c-7.67,10.68-14.23,19.83-21.61,30.12l-30.29-22.59c6-8.71,11.24-17.14,17.48-24.72,1.59-1.93,7.44-2.75,9.6-1.36C1548.67,353.42,1556.33,359.88,1565.13,366.61Z"/><path class="cls-1" d="M130.34,711.55,160,688.36l24,28.37-29.17,23.4Z"/><path class="cls-1" d="M323.79,493.49,295.17,517.6l-24-29.55,29.71-23Z"/><path class="cls-1" d="M359.91,465,335.23,435.4l30-23.64L387.85,441Z"/><path class="cls-1" d="M1625.29,359.67l-23.35,29.14-30.85-22.62,24-27.47Z"/><path class="cls-1" d="M1833.67,834.59l-28-23.16c2.19-3,3.58-5.1,5.19-7,21.52-25.79,22.29-25.77,46.52,1.6Z"/><path class="cls-1" d="M1739.77,497.07l30.38,22.4c-8.42,10-15.87,18.78-24,28.36l-30-22.41Z"/><path class="cls-1" d="M224.88,629,201,599.92l29.17-23.39c7.63,9.91,14.74,19.14,22.48,29.21Z"/><path class="cls-1" d="M219.93,687.09c-8.39-9.42-16.05-18-25.11-28.23l28.81-23.77L248,663.73Z"/><path class="cls-1" d="M1503.6,315.08l23.06-27.3L1556.92,309l-22.75,29.52Z"/><path class="cls-1" d="M401.19,383.05c10-8.58,18.5-15.92,28.21-24.27l22.26,28.92-26.9,24.66Z"/><path class="cls-1" d="M341.81,376.62l29.7-22.7,23.07,27.72-28.43,23.74Z"/><path class="cls-1" d="M302.06,457.69,279,428.87l27-23.45,24.14,29.64Z"/><path class="cls-1" d="M1679.74,497.78l-31.17-23.19,22.38-26,31.16,19.84Z"/><path class="cls-1" d="M1612.32,447.24l-31.54-23,22.7-28.23,29.92,21.43C1626.32,427.43,1619.71,436.79,1612.32,447.24Z"/><path class="cls-1" d="M1836.65,890.25c-24.84-21.94-26-31.19-.83-49,7.46,6.16,15.5,12.15,22.61,19.09,1.78,1.75,2.13,8,.53,9.68C1852.08,877.27,1844.23,883.55,1836.65,890.25Z"/><path class="cls-1" d="M169,834.67l-28.08,22.72-22.3-27.81,30-23.9C155.47,815.49,161.83,824.53,169,834.67Z"/><path class="cls-1" d="M430.1,352.81c-7.75-10.36-14.77-19.73-21.7-29l25.31-23.65c7.92,9.37,15.62,18.47,23.69,28Z"/><path class="cls-1" d="M236.78,518.44l2.45,2.95c21.7,26.35,21.44,28-8.42,47.24l-11.3-13.81-11.42-14.07c5.25-4.36,9.71-8.28,14.39-11.92C226.92,525.38,231.57,522.2,236.78,518.44Z"/><path class="cls-1" d="M190.05,717.18c9.67-7.75,18.38-14.72,27.86-22.33,6.33,8,12.6,15.08,17.78,22.91,1.42,2.15.82,7.69-1,9.56-6.35,6.51-13.65,12.09-21.62,18.9Z"/><path class="cls-1" d="M1466.81,291.5l31.06,24.36-20.08,26c-8.79-7.08-17.42-13.46-25.19-20.76-1.77-1.65-1.91-7.27-.47-9.69C1456.08,304.75,1461.26,298.84,1466.81,291.5Z"/><path class="cls-1" d="M90.6,1007.81l-22.91,21.44a12.89,12.89,0,0,1-2.44-1.18c-28.68-30.84-27.43-21.36,4.24-48.26,3.45,4.26,7,8.44,10.3,12.8S86.32,1001.76,90.6,1007.81Z"/><path class="cls-1" d="M1688.81,562.06l28.24,22.2-23.15,29.07C1669.77,595.53,1668.12,581.39,1688.81,562.06Z"/><path class="cls-1" d="M463.26,329.18c5.14-4.57,9.53-8.69,14.17-12.53,5-4.13,10.17-8,16.09-12.6l19.54,23.33c-5.44,4.7-10.27,8.95-15.18,13.11-4.63,3.93-9.35,7.76-15.07,12.49C476.3,345.06,470.06,337.47,463.26,329.18Z"/><path class="cls-1" d="M138.45,866.15c19.81,22.73,17.28,38.44-7.53,50.62-5.33-7-11.29-14-16-21.71-1.41-2.31-.62-8,1.34-10C123,878.4,130.62,872.69,138.45,866.15Z"/><path class="cls-1" d="M282.18,634.75c-7.66-9.45-14.73-18.18-23.19-28.64l26.93-22.94C305.27,602.16,304,617.9,282.18,634.75Z"/><path class="cls-1" d="M515.21,284l-21.53,17.13-24.38-31L487.52,255Z"/><path class="cls-1" d="M1938.08,1034.67l-25.14,24c-5.08-10.17-10.73-19.13-13.87-28.89-1.39-4.32,1.38-10.94,4.26-15.14,1-1.41,8.84.34,12.33,2.57C1922.91,1021.86,1929.35,1027.75,1938.08,1034.67Z"/><path class="cls-1" d="M1623.42,500.41C1616,490,1608.25,482.29,1604.64,473c-2.06-5.33,2.63-13.28,5-22.87l33.23,24.54C1636.47,483.08,1630.62,490.86,1623.42,500.41Z"/><path class="cls-1" d="M1489.93,257.68c-8.14,11.19-15.21,20.92-23.06,31.73l-21.2-15.47c8.24-10.76,15.75-20.59,24-31.4C1476.2,247.42,1482.32,252,1489.93,257.68Z"/><path class="cls-1" d="M358.46,471.55c12,8.17,13.8,16.29,4.86,26.49-5.09,5.8-9.33,12.36-14.83,19.78L330.06,494.6Z"/><path class="cls-1" d="M1765.19,728.42l31.27,25.42-20.71,25.08c-6.27-13.31-12.36-24.57-16.64-36.49C1758,739.31,1762.54,734.16,1765.19,728.42Z"/><path class="cls-1" d="M1064.78,45.69c-2.52,12.13-5.37,21.86-6.39,31.79-1.1,10.82-.08,21.85-.76,32.73-.76,12-7.5,18.94-23.66,21.23,23.72-28.42,16.18-57,9.72-88.44Z"/><path class="cls-1" d="M37,1063.69,65.74,1039c11.39,14.24,11.39,14.24-6.09,48.14-3.4-4.31-6.22-8.48-9.65-12S42.28,1068.24,37,1063.69Z"/><path class="cls-1" d="M200.31,800.66c-6.74-9.78-11.38-16.52-16.78-24.38L213.2,753C222.16,773.46,204.09,783.48,200.31,800.66Z"/><path class="cls-1" d="M134.53,926.54c-5.49,12.19-11,24.37-17.3,38.39l-13.82-17.22,27.06-23.93Z"/><path class="cls-1" d="M1080.63,101.58c9.8,14.33,17.74,25.92,27.28,39.86l-27.28-7.71Z"/><path class="cls-1" d="M1867.74,921.18l-13.12,15.71c-6.52-12.6-12.44-24-18.35-35.45l2.82-2.75Z"/><path class="cls-1" d="M700.19,96.65c-.83,13.72-1.45,23.91-2.21,36.47L673.7,109.7Z"/><path class="cls-1" d="M1112.25,53.14c11.53,4.16,19.13,6.92,28.17,10.19v25l-2.32,1.49Z"/><path class="cls-1" d="M1712.06,657.52c-6.54-12.95-11.94-23.65-18.72-37.1,10.15,7.27,18.88,12,25.62,18.72C1727.84,648,1716.78,650.88,1712.06,657.52Z"/><path class="cls-1" d="M1280.76,118.78c28.57,12.47,31.13,17,24.25,38.7Z"/><path class="cls-1" d="M262.72,678.43l-8.56-13.5,24.45-21.07,2.18,1.51C275,656,269.22,666.55,262.72,678.43Z"/><path class="cls-1" d="M1296,149.49v35l-2.21,1.11c-3.74-8.18-8.79-16.1-10.55-24.69-.69-3.36,6-8.24,9.33-12.42Z"/><path class="cls-1" d="M671,196.56l23.17-35.79C697.34,173.76,688.33,189,671,196.56Z"/><path class="cls-1" d="M1546.25,403.07c7.9,5.9,16,11.6,23.57,17.87,1.71,1.42,1.78,4.83,2.6,7.33-2.55-.45-5.94,0-7.49-1.48-7.17-6.84-13.83-14.21-20.67-21.39Z"/><path class="cls-1" d="M420.06,424.55l-19.91,23.56C394,439.67,395.69,437.48,420.06,424.55Z"/></g></g></svg>